<?xml version="1.0"?>
<svg xmlns="http://www.w3.org/2000/svg" xmlns:xlink="http://www.w3.org/1999/xlink" viewBox="0 0 400.000000 176.000000" width="200.000000mm" height="88.000000mm" version="1.1">
<a xlink:href="M-0x55caa381bfb0.svg">
<rect x="1.000000" y="1.000000" width="399.000000" height="175.000000" rx="0" ry="0" style="stroke:none;fill:#cccccc;"/>
<rect x="0.000000" y="0.000000" width="399.000000" height="175.000000" rx="0" ry="0" style="stroke:none;fill:#ffffff;"/>
</a>
<text x="10.000000" y="7.000000" font-family="Arial" font-size="7"></text>
<a xlink:href="nu-0x7f947007a1c0.svg">
<rect x="61.000000" y="49.000000" width="24.000000" height="24.000000" rx="0" ry="0" style="stroke:none;fill:#cccccc;"/>
<rect x="60.000000" y="48.000000" width="24.000000" height="24.000000" rx="0" ry="0" style="stroke:none;fill:#003366;"/>
</a>
<a xlink:href="nu-0x7f947007a1c0.svg">
<text x="72.000000" y="62.000000" font-family="Arial" font-size="7" text-anchor="middle" fill="#FFFFFF">nu</text>
</a>
<circle cx="62.000000" cy="50.000000" r="1"/>
<rect x="41.000000" y="81.000000" width="24.000000" height="24.000000" rx="0" ry="0" style="stroke:none;fill:#cccccc;"/>
<rect x="40.000000" y="80.000000" width="24.000000" height="24.000000" rx="0" ry="0" style="stroke:none;fill:#f44800;"/>
<text x="52.000000" y="94.000000" font-family="Arial" font-size="7" text-anchor="middle" fill="#FFFFFF">1</text>
<circle cx="42.000000" cy="82.000000" r="1"/>
<a xlink:href="nu-0x7f947007a1c0.svg">
<rect x="41.000000" y="113.000000" width="24.000000" height="24.000000" rx="0" ry="0" style="stroke:none;fill:#cccccc;"/>
<rect x="40.000000" y="112.000000" width="24.000000" height="24.000000" rx="0" ry="0" style="stroke:none;fill:#003366;"/>
</a>
<a xlink:href="nu-0x7f947007a1c0.svg">
<text x="52.000000" y="126.000000" font-family="Arial" font-size="7" text-anchor="middle" fill="#FFFFFF">nu</text>
</a>
<circle cx="42.000000" cy="114.000000" r="1"/>
<rect x="81.000000" y="97.000000" width="24.000000" height="24.000000" rx="0" ry="0" style="stroke:none;fill:#cccccc;"/>
<rect x="80.000000" y="96.000000" width="24.000000" height="24.000000" rx="0" ry="0" style="stroke:none;fill:#4B71A1;"/>
<text x="92.000000" y="110.000000" font-family="Arial" font-size="7" text-anchor="middle" fill="#FFFFFF">+</text>
<circle cx="82.000000" cy="98.000000" r="1"/>
<line x1="77.000000" y1="103.000000" x2="80.000000" y2="104.000000"  transform="rotate(0.000000,80.000000,104.000000)" style="stroke: black; stroke-width:0.25;"/>
<line x1="77.000000" y1="105.000000" x2="80.000000" y2="104.000000"  transform="rotate(0.000000,80.000000,104.000000)" style="stroke: black; stroke-width:0.25;"/>
<line x1="77.000000" y1="111.000000" x2="80.000000" y2="112.000000"  transform="rotate(0.000000,80.000000,112.000000)" style="stroke: black; stroke-width:0.25;"/>
<line x1="77.000000" y1="113.000000" x2="80.000000" y2="112.000000"  transform="rotate(0.000000,80.000000,112.000000)" style="stroke: black; stroke-width:0.25;"/>
<rect x="121.000000" y="81.000000" width="24.000000" height="24.000000" rx="0" ry="0" style="stroke:none;fill:#cccccc;"/>
<rect x="120.000000" y="80.000000" width="24.000000" height="24.000000" rx="0" ry="0" style="stroke:none;fill:#4B71A1;"/>
<text x="132.000000" y="94.000000" font-family="Arial" font-size="7" text-anchor="middle" fill="#FFFFFF">/</text>
<circle cx="122.000000" cy="82.000000" r="1"/>
<line x1="117.000000" y1="87.000000" x2="120.000000" y2="88.000000"  transform="rotate(0.000000,120.000000,88.000000)" style="stroke: black; stroke-width:0.25;"/>
<line x1="117.000000" y1="89.000000" x2="120.000000" y2="88.000000"  transform="rotate(0.000000,120.000000,88.000000)" style="stroke: black; stroke-width:0.25;"/>
<line x1="117.000000" y1="95.000000" x2="120.000000" y2="96.000000"  transform="rotate(0.000000,120.000000,96.000000)" style="stroke: black; stroke-width:0.25;"/>
<line x1="117.000000" y1="97.000000" x2="120.000000" y2="96.000000"  transform="rotate(0.000000,120.000000,96.000000)" style="stroke: black; stroke-width:0.25;"/>
<rect x="161.000000" y="77.000000" width="24.000000" height="24.000000" rx="0" ry="0" style="stroke:none;fill:#cccccc;"/>
<rect x="160.000000" y="76.000000" width="24.000000" height="24.000000" rx="0" ry="0" style="stroke:none;fill:#4B71A1;"/>
<text x="172.000000" y="90.000000" font-family="Arial" font-size="7" text-anchor="middle" fill="#FFFFFF">*</text>
<circle cx="162.000000" cy="78.000000" r="1"/>
<line x1="157.000000" y1="83.000000" x2="160.000000" y2="84.000000"  transform="rotate(0.000000,160.000000,84.000000)" style="stroke: black; stroke-width:0.25;"/>
<line x1="157.000000" y1="85.000000" x2="160.000000" y2="84.000000"  transform="rotate(0.000000,160.000000,84.000000)" style="stroke: black; stroke-width:0.25;"/>
<line x1="157.000000" y1="91.000000" x2="160.000000" y2="92.000000"  transform="rotate(0.000000,160.000000,92.000000)" style="stroke: black; stroke-width:0.25;"/>
<line x1="157.000000" y1="93.000000" x2="160.000000" y2="92.000000"  transform="rotate(0.000000,160.000000,92.000000)" style="stroke: black; stroke-width:0.25;"/>
<rect x="269.000000" y="129.000000" width="24.000000" height="24.000000" rx="0" ry="0" style="stroke:none;fill:#cccccc;"/>
<rect x="268.000000" y="128.000000" width="24.000000" height="24.000000" rx="0" ry="0" style="stroke:none;fill:#4B71A1;"/>
<text x="280.000000" y="142.000000" font-family="Arial" font-size="7" text-anchor="middle" fill="#FFFFFF">+</text>
<circle cx="270.000000" cy="130.000000" r="1"/>
<line x1="265.000000" y1="135.000000" x2="268.000000" y2="136.000000"  transform="rotate(0.000000,268.000000,136.000000)" style="stroke: black; stroke-width:0.25;"/>
<line x1="265.000000" y1="137.000000" x2="268.000000" y2="136.000000"  transform="rotate(0.000000,268.000000,136.000000)" style="stroke: black; stroke-width:0.25;"/>
<line x1="265.000000" y1="143.000000" x2="268.000000" y2="144.000000"  transform="rotate(0.000000,268.000000,144.000000)" style="stroke: black; stroke-width:0.25;"/>
<line x1="265.000000" y1="145.000000" x2="268.000000" y2="144.000000"  transform="rotate(0.000000,268.000000,144.000000)" style="stroke: black; stroke-width:0.25;"/>
<rect x="309.000000" y="89.000000" width="24.000000" height="24.000000" rx="0" ry="0" style="stroke:none;fill:#cccccc;"/>
<rect x="308.000000" y="88.000000" width="24.000000" height="24.000000" rx="0" ry="0" style="stroke:none;fill:#f44800;"/>
<text x="320.000000" y="102.000000" font-family="Arial" font-size="7" text-anchor="middle" fill="#FFFFFF">1</text>
<circle cx="330.000000" cy="110.000000" r="1"/>
<rect x="329.000000" y="57.000000" width="24.000000" height="24.000000" rx="0" ry="0" style="stroke:none;fill:#cccccc;"/>
<rect x="328.000000" y="56.000000" width="24.000000" height="24.000000" rx="0" ry="0" style="stroke:none;fill:#f44800;"/>
<text x="340.000000" y="70.000000" font-family="Arial" font-size="7" text-anchor="middle" fill="#FFFFFF">1</text>
<circle cx="350.000000" cy="78.000000" r="1"/>
<a xlink:href="nu-0x7f947007a1c0.svg">
<rect x="329.000000" y="25.000000" width="24.000000" height="24.000000" rx="0" ry="0" style="stroke:none;fill:#cccccc;"/>
<rect x="328.000000" y="24.000000" width="24.000000" height="24.000000" rx="0" ry="0" style="stroke:none;fill:#003366;"/>
</a>
<a xlink:href="nu-0x7f947007a1c0.svg">
<text x="340.000000" y="38.000000" font-family="Arial" font-size="7" text-anchor="middle" fill="#FFFFFF">nu</text>
</a>
<circle cx="350.000000" cy="46.000000" r="1"/>
<rect x="289.000000" y="41.000000" width="24.000000" height="24.000000" rx="0" ry="0" style="stroke:none;fill:#cccccc;"/>
<rect x="288.000000" y="40.000000" width="24.000000" height="24.000000" rx="0" ry="0" style="stroke:none;fill:#4B71A1;"/>
<text x="300.000000" y="54.000000" font-family="Arial" font-size="7" text-anchor="middle" fill="#FFFFFF">+</text>
<circle cx="310.000000" cy="62.000000" r="1"/>
<line x1="315.000000" y1="55.000000" x2="312.000000" y2="56.000000"  transform="rotate(0.000000,312.000000,56.000000)" style="stroke: black; stroke-width:0.25;"/>
<line x1="315.000000" y1="57.000000" x2="312.000000" y2="56.000000"  transform="rotate(0.000000,312.000000,56.000000)" style="stroke: black; stroke-width:0.25;"/>
<line x1="315.000000" y1="47.000000" x2="312.000000" y2="48.000000"  transform="rotate(0.000000,312.000000,48.000000)" style="stroke: black; stroke-width:0.25;"/>
<line x1="315.000000" y1="49.000000" x2="312.000000" y2="48.000000"  transform="rotate(0.000000,312.000000,48.000000)" style="stroke: black; stroke-width:0.25;"/>
<rect x="249.000000" y="57.000000" width="24.000000" height="24.000000" rx="0" ry="0" style="stroke:none;fill:#cccccc;"/>
<rect x="248.000000" y="56.000000" width="24.000000" height="24.000000" rx="0" ry="0" style="stroke:none;fill:#4B71A1;"/>
<text x="260.000000" y="70.000000" font-family="Arial" font-size="7" text-anchor="middle" fill="#FFFFFF">/</text>
<circle cx="270.000000" cy="78.000000" r="1"/>
<line x1="275.000000" y1="71.000000" x2="272.000000" y2="72.000000"  transform="rotate(0.000000,272.000000,72.000000)" style="stroke: black; stroke-width:0.25;"/>
<line x1="275.000000" y1="73.000000" x2="272.000000" y2="72.000000"  transform="rotate(0.000000,272.000000,72.000000)" style="stroke: black; stroke-width:0.25;"/>
<line x1="275.000000" y1="63.000000" x2="272.000000" y2="64.000000"  transform="rotate(0.000000,272.000000,64.000000)" style="stroke: black; stroke-width:0.25;"/>
<line x1="275.000000" y1="65.000000" x2="272.000000" y2="64.000000"  transform="rotate(0.000000,272.000000,64.000000)" style="stroke: black; stroke-width:0.25;"/>
<rect x="209.000000" y="61.000000" width="24.000000" height="24.000000" rx="0" ry="0" style="stroke:none;fill:#cccccc;"/>
<rect x="208.000000" y="60.000000" width="24.000000" height="24.000000" rx="0" ry="0" style="stroke:none;fill:#4B71A1;"/>
<text x="220.000000" y="74.000000" font-family="Arial" font-size="7" text-anchor="middle" fill="#FFFFFF">*</text>
<circle cx="230.000000" cy="82.000000" r="1"/>
<line x1="235.000000" y1="75.000000" x2="232.000000" y2="76.000000"  transform="rotate(0.000000,232.000000,76.000000)" style="stroke: black; stroke-width:0.25;"/>
<line x1="235.000000" y1="77.000000" x2="232.000000" y2="76.000000"  transform="rotate(0.000000,232.000000,76.000000)" style="stroke: black; stroke-width:0.25;"/>
<line x1="235.000000" y1="67.000000" x2="232.000000" y2="68.000000"  transform="rotate(0.000000,232.000000,68.000000)" style="stroke: black; stroke-width:0.25;"/>
<line x1="235.000000" y1="69.000000" x2="232.000000" y2="68.000000"  transform="rotate(0.000000,232.000000,68.000000)" style="stroke: black; stroke-width:0.25;"/>
<line x1="354.000000" y1="140.000000" x2="354.000000" y2="136.000000"  style="stroke:black; stroke-linecap:round; stroke-width:0.25;"/>
<line x1="354.000000" y1="136.000000" x2="358.000000" y2="136.000000"  style="stroke:black; stroke-linecap:round; stroke-width:0.25;"/>
<line x1="358.000000" y1="136.000000" x2="358.000000" y2="140.000000"  style="stroke:black; stroke-linecap:round; stroke-width:0.25;"/>
<line x1="15.000000" y1="15.000000" x2="15.000000" y2="161.000000"  style="stroke: black; stroke-linecap:round; stroke-width:0.25; stroke-dasharray:3,3;"/>
<line x1="15.000000" y1="161.000000" x2="385.000000" y2="161.000000"  style="stroke: black; stroke-linecap:round; stroke-width:0.25; stroke-dasharray:3,3;"/>
<line x1="385.000000" y1="161.000000" x2="385.000000" y2="15.000000"  style="stroke: black; stroke-linecap:round; stroke-width:0.25; stroke-dasharray:3,3;"/>
<line x1="15.000000" y1="15.000000" x2="20.000000" y2="15.000000"  style="stroke: black; stroke-linecap:round; stroke-width:0.25; stroke-dasharray:3,3;"/>
<line x1="32.900000" y1="15.000000" x2="385.000000" y2="15.000000"  style="stroke: black; stroke-linecap:round; stroke-width:0.25; stroke-dasharray:3,3;"/>
<text x="20.000000" y="17.000000" font-family="Arial" font-size="7">F1</text>
<line x1="387.000000" y1="87.000000" x2="390.000000" y2="88.000000"  transform="rotate(0.000000,390.000000,88.000000)" style="stroke: black; stroke-width:0.25;"/>
<line x1="387.000000" y1="89.000000" x2="390.000000" y2="88.000000"  transform="rotate(0.000000,390.000000,88.000000)" style="stroke: black; stroke-width:0.25;"/>
<line x1="10.000000" y1="88.000000" x2="20.000000" y2="88.000000"  style="stroke:black; stroke-linecap:round; stroke-width:0.25;"/>
<line x1="20.000000" y1="88.000000" x2="24.000000" y2="88.000000"  style="stroke:black; stroke-linecap:round; stroke-width:0.25;"/>
<line x1="24.000000" y1="88.000000" x2="28.000000" y2="88.000000"  style="stroke:black; stroke-linecap:round; stroke-width:0.25;"/>
<line x1="28.000000" y1="40.000000" x2="36.000000" y2="40.000000"  style="stroke:black; stroke-linecap:round; stroke-width:0.25;"/>
<line x1="28.000000" y1="88.000000" x2="28.000000" y2="40.000000"  style="stroke:black; stroke-linecap:round; stroke-width:0.25;"/>
<line x1="28.000000" y1="88.000000" x2="28.000000" y2="88.000000"  style="stroke:black; stroke-linecap:round; stroke-width:0.25;"/>
<line x1="36.000000" y1="40.000000" x2="92.000000" y2="40.000000"  style="stroke:black; stroke-linecap:round; stroke-width:0.25;"/>
<line x1="64.000000" y1="92.000000" x2="68.000000" y2="92.000000"  style="stroke:black; stroke-linecap:round; stroke-width:0.25;"/>
<line x1="64.000000" y1="124.000000" x2="68.000000" y2="124.000000"  style="stroke:black; stroke-linecap:round; stroke-width:0.25;"/>
<line x1="68.000000" y1="92.000000" x2="76.000000" y2="92.000000"  style="stroke:black; stroke-linecap:round; stroke-width:0.25;"/>
<line x1="68.000000" y1="112.000000" x2="76.000000" y2="112.000000"  style="stroke:black; stroke-linecap:round; stroke-width:0.25;"/>
<line x1="68.000000" y1="124.000000" x2="68.000000" y2="112.000000"  style="stroke:black; stroke-linecap:round; stroke-width:0.25;"/>
<line x1="68.000000" y1="124.000000" x2="68.000000" y2="124.000000"  style="stroke:black; stroke-linecap:round; stroke-width:0.25;"/>
<line x1="76.000000" y1="92.000000" x2="76.000000" y2="104.000000"  style="stroke:black; stroke-linecap:round; stroke-width:0.25;"/>
<line x1="76.000000" y1="104.000000" x2="76.000000" y2="104.000000"  style="stroke:black; stroke-linecap:round; stroke-width:0.25;"/>
<line x1="76.000000" y1="104.000000" x2="80.000000" y2="104.000000"  style="stroke:black; stroke-linecap:round; stroke-width:0.25;"/>
<line x1="76.000000" y1="112.000000" x2="80.000000" y2="112.000000"  style="stroke:black; stroke-linecap:round; stroke-width:0.25;"/>
<line x1="84.000000" y1="60.000000" x2="88.000000" y2="60.000000"  style="stroke:black; stroke-linecap:round; stroke-width:0.25;"/>
<line x1="88.000000" y1="60.000000" x2="108.000000" y2="60.000000"  style="stroke:black; stroke-linecap:round; stroke-width:0.25;"/>
<line x1="92.000000" y1="40.000000" x2="148.000000" y2="40.000000"  style="stroke:black; stroke-linecap:round; stroke-width:0.25;"/>
<line x1="104.000000" y1="108.000000" x2="108.000000" y2="108.000000"  style="stroke:black; stroke-linecap:round; stroke-width:0.25;"/>
<line x1="108.000000" y1="60.000000" x2="116.000000" y2="60.000000"  style="stroke:black; stroke-linecap:round; stroke-width:0.25;"/>
<line x1="108.000000" y1="96.000000" x2="116.000000" y2="96.000000"  style="stroke:black; stroke-linecap:round; stroke-width:0.25;"/>
<line x1="108.000000" y1="108.000000" x2="108.000000" y2="96.000000"  style="stroke:black; stroke-linecap:round; stroke-width:0.25;"/>
<line x1="108.000000" y1="108.000000" x2="108.000000" y2="108.000000"  style="stroke:black; stroke-linecap:round; stroke-width:0.25;"/>
<line x1="116.000000" y1="60.000000" x2="116.000000" y2="88.000000"  style="stroke:black; stroke-linecap:round; stroke-width:0.25;"/>
<line x1="116.000000" y1="88.000000" x2="116.000000" y2="88.000000"  style="stroke:black; stroke-linecap:round; stroke-width:0.25;"/>
<line x1="116.000000" y1="88.000000" x2="120.000000" y2="88.000000"  style="stroke:black; stroke-linecap:round; stroke-width:0.25;"/>
<line x1="116.000000" y1="96.000000" x2="120.000000" y2="96.000000"  style="stroke:black; stroke-linecap:round; stroke-width:0.25;"/>
<line x1="144.000000" y1="92.000000" x2="148.000000" y2="92.000000"  style="stroke:black; stroke-linecap:round; stroke-width:0.25;"/>
<line x1="148.000000" y1="40.000000" x2="156.000000" y2="40.000000"  style="stroke:black; stroke-linecap:round; stroke-width:0.25;"/>
<line x1="148.000000" y1="92.000000" x2="156.000000" y2="92.000000"  style="stroke:black; stroke-linecap:round; stroke-width:0.25;"/>
<line x1="156.000000" y1="40.000000" x2="156.000000" y2="84.000000"  style="stroke:black; stroke-linecap:round; stroke-width:0.25;"/>
<line x1="156.000000" y1="84.000000" x2="156.000000" y2="84.000000"  style="stroke:black; stroke-linecap:round; stroke-width:0.25;"/>
<line x1="156.000000" y1="84.000000" x2="160.000000" y2="84.000000"  style="stroke:black; stroke-linecap:round; stroke-width:0.25;"/>
<line x1="156.000000" y1="92.000000" x2="160.000000" y2="92.000000"  style="stroke:black; stroke-linecap:round; stroke-width:0.25;"/>
<line x1="184.000000" y1="88.000000" x2="188.000000" y2="88.000000"  style="stroke:black; stroke-linecap:round; stroke-width:0.25;"/>
<line x1="188.000000" y1="88.000000" x2="196.000000" y2="88.000000"  style="stroke:black; stroke-linecap:round; stroke-width:0.25;"/>
<line x1="196.000000" y1="88.000000" x2="196.000000" y2="144.000000"  style="stroke:black; stroke-linecap:round; stroke-width:0.25;"/>
<line x1="196.000000" y1="144.000000" x2="196.000000" y2="144.000000"  style="stroke:black; stroke-linecap:round; stroke-width:0.25;"/>
<line x1="196.000000" y1="144.000000" x2="204.000000" y2="144.000000"  style="stroke:black; stroke-linecap:round; stroke-width:0.25;"/>
<line x1="204.000000" y1="72.000000" x2="204.000000" y2="72.000000"  style="stroke:black; stroke-linecap:round; stroke-width:0.25;"/>
<line x1="204.000000" y1="72.000000" x2="204.000000" y2="136.000000"  style="stroke:black; stroke-linecap:round; stroke-width:0.25;"/>
<line x1="204.000000" y1="136.000000" x2="204.000000" y2="136.000000"  style="stroke:black; stroke-linecap:round; stroke-width:0.25;"/>
<line x1="204.000000" y1="136.000000" x2="264.000000" y2="136.000000"  style="stroke:black; stroke-linecap:round; stroke-width:0.25;"/>
<line x1="204.000000" y1="144.000000" x2="264.000000" y2="144.000000"  style="stroke:black; stroke-linecap:round; stroke-width:0.25;"/>
<line x1="208.000000" y1="72.000000" x2="204.000000" y2="72.000000"  style="stroke:black; stroke-linecap:round; stroke-width:0.25;"/>
<line x1="236.000000" y1="68.000000" x2="232.000000" y2="68.000000"  style="stroke:black; stroke-linecap:round; stroke-width:0.25;"/>
<line x1="236.000000" y1="76.000000" x2="232.000000" y2="76.000000"  style="stroke:black; stroke-linecap:round; stroke-width:0.25;"/>
<line x1="236.000000" y1="76.000000" x2="236.000000" y2="76.000000"  style="stroke:black; stroke-linecap:round; stroke-width:0.25;"/>
<line x1="236.000000" y1="120.000000" x2="236.000000" y2="76.000000"  style="stroke:black; stroke-linecap:round; stroke-width:0.25;"/>
<line x1="244.000000" y1="68.000000" x2="236.000000" y2="68.000000"  style="stroke:black; stroke-linecap:round; stroke-width:0.25;"/>
<line x1="244.000000" y1="120.000000" x2="236.000000" y2="120.000000"  style="stroke:black; stroke-linecap:round; stroke-width:0.25;"/>
<line x1="248.000000" y1="68.000000" x2="244.000000" y2="68.000000"  style="stroke:black; stroke-linecap:round; stroke-width:0.25;"/>
<line x1="264.000000" y1="136.000000" x2="268.000000" y2="136.000000"  style="stroke:black; stroke-linecap:round; stroke-width:0.25;"/>
<line x1="264.000000" y1="144.000000" x2="268.000000" y2="144.000000"  style="stroke:black; stroke-linecap:round; stroke-width:0.25;"/>
<line x1="276.000000" y1="64.000000" x2="272.000000" y2="64.000000"  style="stroke:black; stroke-linecap:round; stroke-width:0.25;"/>
<line x1="276.000000" y1="72.000000" x2="272.000000" y2="72.000000"  style="stroke:black; stroke-linecap:round; stroke-width:0.25;"/>
<line x1="276.000000" y1="72.000000" x2="276.000000" y2="72.000000"  style="stroke:black; stroke-linecap:round; stroke-width:0.25;"/>
<line x1="276.000000" y1="100.000000" x2="276.000000" y2="72.000000"  style="stroke:black; stroke-linecap:round; stroke-width:0.25;"/>
<line x1="284.000000" y1="52.000000" x2="284.000000" y2="52.000000"  style="stroke:black; stroke-linecap:round; stroke-width:0.25;"/>
<line x1="284.000000" y1="52.000000" x2="284.000000" y2="64.000000"  style="stroke:black; stroke-linecap:round; stroke-width:0.25;"/>
<line x1="284.000000" y1="64.000000" x2="276.000000" y2="64.000000"  style="stroke:black; stroke-linecap:round; stroke-width:0.25;"/>
<line x1="284.000000" y1="100.000000" x2="276.000000" y2="100.000000"  style="stroke:black; stroke-linecap:round; stroke-width:0.25;"/>
<line x1="288.000000" y1="52.000000" x2="284.000000" y2="52.000000"  style="stroke:black; stroke-linecap:round; stroke-width:0.25;"/>
<line x1="292.000000" y1="140.000000" x2="296.000000" y2="140.000000"  style="stroke:black; stroke-linecap:round; stroke-width:0.25;"/>
<line x1="296.000000" y1="140.000000" x2="356.000000" y2="140.000000"  style="stroke:black; stroke-linecap:round; stroke-width:0.25;"/>
<line x1="300.000000" y1="120.000000" x2="244.000000" y2="120.000000"  style="stroke:black; stroke-linecap:round; stroke-width:0.25;"/>
<line x1="304.000000" y1="100.000000" x2="284.000000" y2="100.000000"  style="stroke:black; stroke-linecap:round; stroke-width:0.25;"/>
<line x1="308.000000" y1="100.000000" x2="304.000000" y2="100.000000"  style="stroke:black; stroke-linecap:round; stroke-width:0.25;"/>
<line x1="316.000000" y1="48.000000" x2="312.000000" y2="48.000000"  style="stroke:black; stroke-linecap:round; stroke-width:0.25;"/>
<line x1="316.000000" y1="56.000000" x2="312.000000" y2="56.000000"  style="stroke:black; stroke-linecap:round; stroke-width:0.25;"/>
<line x1="316.000000" y1="56.000000" x2="316.000000" y2="56.000000"  style="stroke:black; stroke-linecap:round; stroke-width:0.25;"/>
<line x1="316.000000" y1="68.000000" x2="316.000000" y2="56.000000"  style="stroke:black; stroke-linecap:round; stroke-width:0.25;"/>
<line x1="324.000000" y1="36.000000" x2="324.000000" y2="36.000000"  style="stroke:black; stroke-linecap:round; stroke-width:0.25;"/>
<line x1="324.000000" y1="36.000000" x2="324.000000" y2="48.000000"  style="stroke:black; stroke-linecap:round; stroke-width:0.25;"/>
<line x1="324.000000" y1="48.000000" x2="316.000000" y2="48.000000"  style="stroke:black; stroke-linecap:round; stroke-width:0.25;"/>
<line x1="324.000000" y1="68.000000" x2="316.000000" y2="68.000000"  style="stroke:black; stroke-linecap:round; stroke-width:0.25;"/>
<line x1="328.000000" y1="36.000000" x2="324.000000" y2="36.000000"  style="stroke:black; stroke-linecap:round; stroke-width:0.25;"/>
<line x1="328.000000" y1="68.000000" x2="324.000000" y2="68.000000"  style="stroke:black; stroke-linecap:round; stroke-width:0.25;"/>
<line x1="356.000000" y1="120.000000" x2="300.000000" y2="120.000000"  style="stroke:black; stroke-linecap:round; stroke-width:0.25;"/>
<line x1="356.000000" y1="120.000000" x2="356.000000" y2="120.000000"  style="stroke:black; stroke-linecap:round; stroke-width:0.25;"/>
<line x1="356.000000" y1="136.000000" x2="356.000000" y2="120.000000"  style="stroke:black; stroke-linecap:round; stroke-width:0.25;"/>
<line x1="356.000000" y1="140.000000" x2="358.000000" y2="140.000000"  style="stroke:black; stroke-linecap:round; stroke-width:0.25;"/>
<line x1="358.000000" y1="140.000000" x2="364.000000" y2="140.000000"  style="stroke:black; stroke-linecap:round; stroke-width:0.25;"/>
<line x1="364.000000" y1="88.000000" x2="372.000000" y2="88.000000"  style="stroke:black; stroke-linecap:round; stroke-width:0.25;"/>
<line x1="364.000000" y1="140.000000" x2="364.000000" y2="88.000000"  style="stroke:black; stroke-linecap:round; stroke-width:0.25;"/>
<line x1="364.000000" y1="140.000000" x2="364.000000" y2="140.000000"  style="stroke:black; stroke-linecap:round; stroke-width:0.25;"/>
<line x1="372.000000" y1="88.000000" x2="376.000000" y2="88.000000"  style="stroke:black; stroke-linecap:round; stroke-width:0.25;"/>
<line x1="376.000000" y1="88.000000" x2="380.000000" y2="88.000000"  style="stroke:black; stroke-linecap:round; stroke-width:0.25;"/>
<line x1="380.000000" y1="88.000000" x2="390.000000" y2="88.000000"  style="stroke:black; stroke-linecap:round; stroke-width:0.25;"/>
</svg>
