<?xml version="1.0"?>
<svg xmlns="http://www.w3.org/2000/svg" xmlns:xlink="http://www.w3.org/1999/xlink" viewBox="0 0 466.900000 208.000000" width="233.450000mm" height="104.000000mm" version="1.1">
<a xlink:href="F1-0x7f947007c200.svg">
<rect x="1.000000" y="1.000000" width="465.900000" height="207.000000" rx="0" ry="0" style="stroke:none;fill:#cccccc;"/>
<rect x="0.000000" y="0.000000" width="465.900000" height="207.000000" rx="0" ry="0" style="stroke:none;fill:#ffffff;"/>
</a>
<text x="10.000000" y="7.000000" font-family="Arial" font-size="7"></text>
<rect x="35.000000" y="35.000000" width="270.900000" height="24.000000" rx="0" ry="0" style="stroke:none;fill:#cccccc;"/>
<rect x="34.000000" y="34.000000" width="270.900000" height="24.000000" rx="0" ry="0" style="stroke:none;fill:#477881;"/>
<text x="169.450000" y="48.000000" font-family="Arial" font-size="7" text-anchor="middle" fill="#FFFFFF">hslider(Cutoff, 600.0f, 100.0f, 5000.0f, 0.10000000000000001f)</text>
<circle cx="36.000000" cy="36.000000" r="1"/>
<line x1="25.000000" y1="25.000000" x2="25.000000" y2="67.000000"  style="stroke: black; stroke-linecap:round; stroke-width:0.25; stroke-dasharray:3,3;"/>
<line x1="25.000000" y1="67.000000" x2="313.900000" y2="67.000000"  style="stroke: black; stroke-linecap:round; stroke-width:0.25; stroke-dasharray:3,3;"/>
<line x1="313.900000" y1="67.000000" x2="313.900000" y2="25.000000"  style="stroke: black; stroke-linecap:round; stroke-width:0.25; stroke-dasharray:3,3;"/>
<line x1="25.000000" y1="25.000000" x2="30.000000" y2="25.000000"  style="stroke: black; stroke-linecap:round; stroke-width:0.25; stroke-dasharray:3,3;"/>
<line x1="42.900000" y1="25.000000" x2="313.900000" y2="25.000000"  style="stroke: black; stroke-linecap:round; stroke-width:0.25; stroke-dasharray:3,3;"/>
<text x="30.000000" y="27.000000" font-family="Arial" font-size="7">fc</text>
<rect x="158.450000" y="77.000000" width="24.000000" height="24.000000" rx="0" ry="0" style="stroke:none;fill:#cccccc;"/>
<rect x="157.450000" y="76.000000" width="24.000000" height="24.000000" rx="0" ry="0" style="stroke:none;fill:#f44800;"/>
<text x="169.450000" y="90.000000" font-family="Arial" font-size="7" text-anchor="middle" fill="#FFFFFF">2</text>
<circle cx="159.450000" cy="78.000000" r="1"/>
<rect x="331.900000" y="51.000000" width="24.000000" height="24.000000" rx="0" ry="0" style="stroke:none;fill:#cccccc;"/>
<rect x="330.900000" y="50.000000" width="24.000000" height="24.000000" rx="0" ry="0" style="stroke:none;fill:#4B71A1;"/>
<text x="342.900000" y="64.000000" font-family="Arial" font-size="7" text-anchor="middle" fill="#FFFFFF">*</text>
<circle cx="332.900000" cy="52.000000" r="1"/>
<line x1="327.900000" y1="57.000000" x2="330.900000" y2="58.000000"  transform="rotate(0.000000,330.900000,58.000000)" style="stroke: black; stroke-width:0.25;"/>
<line x1="327.900000" y1="59.000000" x2="330.900000" y2="58.000000"  transform="rotate(0.000000,330.900000,58.000000)" style="stroke: black; stroke-width:0.25;"/>
<line x1="327.900000" y1="65.000000" x2="330.900000" y2="66.000000"  transform="rotate(0.000000,330.900000,66.000000)" style="stroke: black; stroke-width:0.25;"/>
<line x1="327.900000" y1="67.000000" x2="330.900000" y2="66.000000"  transform="rotate(0.000000,330.900000,66.000000)" style="stroke: black; stroke-width:0.25;"/>
<rect x="171.100000" y="119.000000" width="38.700000" height="24.000000" rx="0" ry="0" style="stroke:none;fill:#cccccc;"/>
<rect x="170.100000" y="118.000000" width="38.700000" height="24.000000" rx="0" ry="0" style="stroke:none;fill:#f44800;"/>
<text x="189.450000" y="132.000000" font-family="Arial" font-size="7" text-anchor="middle" fill="#FFFFFF">3.14159</text>
<circle cx="172.100000" cy="120.000000" r="1"/>
<line x1="161.100000" y1="109.000000" x2="161.100000" y2="151.000000"  style="stroke: black; stroke-linecap:round; stroke-width:0.25; stroke-dasharray:3,3;"/>
<line x1="161.100000" y1="151.000000" x2="217.800000" y2="151.000000"  style="stroke: black; stroke-linecap:round; stroke-width:0.25; stroke-dasharray:3,3;"/>
<line x1="217.800000" y1="151.000000" x2="217.800000" y2="109.000000"  style="stroke: black; stroke-linecap:round; stroke-width:0.25; stroke-dasharray:3,3;"/>
<line x1="161.100000" y1="109.000000" x2="166.100000" y2="109.000000"  style="stroke: black; stroke-linecap:round; stroke-width:0.25; stroke-dasharray:3,3;"/>
<line x1="179.000000" y1="109.000000" x2="217.800000" y2="109.000000"  style="stroke: black; stroke-linecap:round; stroke-width:0.25; stroke-dasharray:3,3;"/>
<text x="166.100000" y="111.000000" font-family="Arial" font-size="7">PI</text>
<rect x="371.900000" y="77.000000" width="24.000000" height="24.000000" rx="0" ry="0" style="stroke:none;fill:#cccccc;"/>
<rect x="370.900000" y="76.000000" width="24.000000" height="24.000000" rx="0" ry="0" style="stroke:none;fill:#4B71A1;"/>
<text x="382.900000" y="90.000000" font-family="Arial" font-size="7" text-anchor="middle" fill="#FFFFFF">*</text>
<circle cx="372.900000" cy="78.000000" r="1"/>
<line x1="367.900000" y1="83.000000" x2="370.900000" y2="84.000000"  transform="rotate(0.000000,370.900000,84.000000)" style="stroke: black; stroke-width:0.25;"/>
<line x1="367.900000" y1="85.000000" x2="370.900000" y2="84.000000"  transform="rotate(0.000000,370.900000,84.000000)" style="stroke: black; stroke-width:0.25;"/>
<line x1="367.900000" y1="91.000000" x2="370.900000" y2="92.000000"  transform="rotate(0.000000,370.900000,92.000000)" style="stroke: black; stroke-width:0.25;"/>
<line x1="367.900000" y1="93.000000" x2="370.900000" y2="92.000000"  transform="rotate(0.000000,370.900000,92.000000)" style="stroke: black; stroke-width:0.25;"/>
<a xlink:href="ts-0x7f9470077640.svg">
<rect x="198.450000" y="161.000000" width="24.000000" height="24.000000" rx="0" ry="0" style="stroke:none;fill:#cccccc;"/>
<rect x="197.450000" y="160.000000" width="24.000000" height="24.000000" rx="0" ry="0" style="stroke:none;fill:#003366;"/>
</a>
<a xlink:href="ts-0x7f9470077640.svg">
<text x="209.450000" y="174.000000" font-family="Arial" font-size="7" text-anchor="middle" fill="#FFFFFF">ts</text>
</a>
<circle cx="199.450000" cy="162.000000" r="1"/>
<rect x="411.900000" y="93.000000" width="24.000000" height="24.000000" rx="0" ry="0" style="stroke:none;fill:#cccccc;"/>
<rect x="410.900000" y="92.000000" width="24.000000" height="24.000000" rx="0" ry="0" style="stroke:none;fill:#4B71A1;"/>
<text x="422.900000" y="106.000000" font-family="Arial" font-size="7" text-anchor="middle" fill="#FFFFFF">*</text>
<circle cx="412.900000" cy="94.000000" r="1"/>
<line x1="407.900000" y1="99.000000" x2="410.900000" y2="100.000000"  transform="rotate(0.000000,410.900000,100.000000)" style="stroke: black; stroke-width:0.25;"/>
<line x1="407.900000" y1="101.000000" x2="410.900000" y2="100.000000"  transform="rotate(0.000000,410.900000,100.000000)" style="stroke: black; stroke-width:0.25;"/>
<line x1="407.900000" y1="107.000000" x2="410.900000" y2="108.000000"  transform="rotate(0.000000,410.900000,108.000000)" style="stroke: black; stroke-width:0.25;"/>
<line x1="407.900000" y1="109.000000" x2="410.900000" y2="108.000000"  transform="rotate(0.000000,410.900000,108.000000)" style="stroke: black; stroke-width:0.25;"/>
<line x1="15.000000" y1="15.000000" x2="15.000000" y2="193.000000"  style="stroke: black; stroke-linecap:round; stroke-width:0.25; stroke-dasharray:3,3;"/>
<line x1="15.000000" y1="193.000000" x2="451.900000" y2="193.000000"  style="stroke: black; stroke-linecap:round; stroke-width:0.25; stroke-dasharray:3,3;"/>
<line x1="451.900000" y1="193.000000" x2="451.900000" y2="15.000000"  style="stroke: black; stroke-linecap:round; stroke-width:0.25; stroke-dasharray:3,3;"/>
<line x1="15.000000" y1="15.000000" x2="20.000000" y2="15.000000"  style="stroke: black; stroke-linecap:round; stroke-width:0.25; stroke-dasharray:3,3;"/>
<line x1="32.900000" y1="15.000000" x2="451.900000" y2="15.000000"  style="stroke: black; stroke-linecap:round; stroke-width:0.25; stroke-dasharray:3,3;"/>
<text x="20.000000" y="17.000000" font-family="Arial" font-size="7">nu</text>
<line x1="453.900000" y1="103.000000" x2="456.900000" y2="104.000000"  transform="rotate(0.000000,456.900000,104.000000)" style="stroke: black; stroke-width:0.25;"/>
<line x1="453.900000" y1="105.000000" x2="456.900000" y2="104.000000"  transform="rotate(0.000000,456.900000,104.000000)" style="stroke: black; stroke-width:0.25;"/>
<line x1="181.450000" y1="88.000000" x2="185.450000" y2="88.000000"  style="stroke:black; stroke-linecap:round; stroke-width:0.25;"/>
<line x1="185.450000" y1="88.000000" x2="318.900000" y2="88.000000"  style="stroke:black; stroke-linecap:round; stroke-width:0.25;"/>
<line x1="208.800000" y1="130.000000" x2="212.800000" y2="130.000000"  style="stroke:black; stroke-linecap:round; stroke-width:0.25;"/>
<line x1="212.800000" y1="130.000000" x2="222.800000" y2="130.000000"  style="stroke:black; stroke-linecap:round; stroke-width:0.25;"/>
<line x1="221.450000" y1="172.000000" x2="225.450000" y2="172.000000"  style="stroke:black; stroke-linecap:round; stroke-width:0.25;"/>
<line x1="222.800000" y1="130.000000" x2="358.900000" y2="130.000000"  style="stroke:black; stroke-linecap:round; stroke-width:0.25;"/>
<line x1="225.450000" y1="172.000000" x2="398.900000" y2="172.000000"  style="stroke:black; stroke-linecap:round; stroke-width:0.25;"/>
<line x1="304.900000" y1="46.000000" x2="308.900000" y2="46.000000"  style="stroke:black; stroke-linecap:round; stroke-width:0.25;"/>
<line x1="308.900000" y1="46.000000" x2="318.900000" y2="46.000000"  style="stroke:black; stroke-linecap:round; stroke-width:0.25;"/>
<line x1="318.900000" y1="46.000000" x2="326.900000" y2="46.000000"  style="stroke:black; stroke-linecap:round; stroke-width:0.25;"/>
<line x1="318.900000" y1="66.000000" x2="326.900000" y2="66.000000"  style="stroke:black; stroke-linecap:round; stroke-width:0.25;"/>
<line x1="318.900000" y1="88.000000" x2="318.900000" y2="66.000000"  style="stroke:black; stroke-linecap:round; stroke-width:0.25;"/>
<line x1="318.900000" y1="88.000000" x2="318.900000" y2="88.000000"  style="stroke:black; stroke-linecap:round; stroke-width:0.25;"/>
<line x1="326.900000" y1="46.000000" x2="326.900000" y2="58.000000"  style="stroke:black; stroke-linecap:round; stroke-width:0.25;"/>
<line x1="326.900000" y1="58.000000" x2="326.900000" y2="58.000000"  style="stroke:black; stroke-linecap:round; stroke-width:0.25;"/>
<line x1="326.900000" y1="58.000000" x2="330.900000" y2="58.000000"  style="stroke:black; stroke-linecap:round; stroke-width:0.25;"/>
<line x1="326.900000" y1="66.000000" x2="330.900000" y2="66.000000"  style="stroke:black; stroke-linecap:round; stroke-width:0.25;"/>
<line x1="354.900000" y1="62.000000" x2="358.900000" y2="62.000000"  style="stroke:black; stroke-linecap:round; stroke-width:0.25;"/>
<line x1="358.900000" y1="62.000000" x2="366.900000" y2="62.000000"  style="stroke:black; stroke-linecap:round; stroke-width:0.25;"/>
<line x1="358.900000" y1="92.000000" x2="366.900000" y2="92.000000"  style="stroke:black; stroke-linecap:round; stroke-width:0.25;"/>
<line x1="358.900000" y1="130.000000" x2="358.900000" y2="92.000000"  style="stroke:black; stroke-linecap:round; stroke-width:0.25;"/>
<line x1="358.900000" y1="130.000000" x2="358.900000" y2="130.000000"  style="stroke:black; stroke-linecap:round; stroke-width:0.25;"/>
<line x1="366.900000" y1="62.000000" x2="366.900000" y2="84.000000"  style="stroke:black; stroke-linecap:round; stroke-width:0.25;"/>
<line x1="366.900000" y1="84.000000" x2="366.900000" y2="84.000000"  style="stroke:black; stroke-linecap:round; stroke-width:0.25;"/>
<line x1="366.900000" y1="84.000000" x2="370.900000" y2="84.000000"  style="stroke:black; stroke-linecap:round; stroke-width:0.25;"/>
<line x1="366.900000" y1="92.000000" x2="370.900000" y2="92.000000"  style="stroke:black; stroke-linecap:round; stroke-width:0.25;"/>
<line x1="394.900000" y1="88.000000" x2="398.900000" y2="88.000000"  style="stroke:black; stroke-linecap:round; stroke-width:0.25;"/>
<line x1="398.900000" y1="88.000000" x2="406.900000" y2="88.000000"  style="stroke:black; stroke-linecap:round; stroke-width:0.25;"/>
<line x1="398.900000" y1="108.000000" x2="406.900000" y2="108.000000"  style="stroke:black; stroke-linecap:round; stroke-width:0.25;"/>
<line x1="398.900000" y1="172.000000" x2="398.900000" y2="108.000000"  style="stroke:black; stroke-linecap:round; stroke-width:0.25;"/>
<line x1="398.900000" y1="172.000000" x2="398.900000" y2="172.000000"  style="stroke:black; stroke-linecap:round; stroke-width:0.25;"/>
<line x1="406.900000" y1="88.000000" x2="406.900000" y2="100.000000"  style="stroke:black; stroke-linecap:round; stroke-width:0.25;"/>
<line x1="406.900000" y1="100.000000" x2="406.900000" y2="100.000000"  style="stroke:black; stroke-linecap:round; stroke-width:0.25;"/>
<line x1="406.900000" y1="100.000000" x2="410.900000" y2="100.000000"  style="stroke:black; stroke-linecap:round; stroke-width:0.25;"/>
<line x1="406.900000" y1="108.000000" x2="410.900000" y2="108.000000"  style="stroke:black; stroke-linecap:round; stroke-width:0.25;"/>
<line x1="434.900000" y1="104.000000" x2="438.900000" y2="104.000000"  style="stroke:black; stroke-linecap:round; stroke-width:0.25;"/>
<line x1="438.900000" y1="104.000000" x2="438.900000" y2="104.000000"  style="stroke:black; stroke-linecap:round; stroke-width:0.25;"/>
<line x1="438.900000" y1="104.000000" x2="442.900000" y2="104.000000"  style="stroke:black; stroke-linecap:round; stroke-width:0.25;"/>
<line x1="442.900000" y1="104.000000" x2="446.900000" y2="104.000000"  style="stroke:black; stroke-linecap:round; stroke-width:0.25;"/>
<line x1="446.900000" y1="104.000000" x2="456.900000" y2="104.000000"  style="stroke:black; stroke-linecap:round; stroke-width:0.25;"/>
</svg>
