<?xml version="1.0"?>
<svg xmlns="http://www.w3.org/2000/svg" xmlns:xlink="http://www.w3.org/1999/xlink" viewBox="0 0 545.600000 124.000000" width="272.800000mm" height="62.000000mm" version="1.1">
<a xlink:href="sawtooth-0x7f947006c6f0.svg">
<rect x="1.000000" y="1.000000" width="544.600000" height="123.000000" rx="0" ry="0" style="stroke:none;fill:#cccccc;"/>
<rect x="0.000000" y="0.000000" width="544.600000" height="123.000000" rx="0" ry="0" style="stroke:none;fill:#ffffff;"/>
</a>
<text x="10.000000" y="7.000000" font-family="Arial" font-size="7"></text>
<rect x="35.000000" y="35.000000" width="283.800000" height="24.000000" rx="0" ry="0" style="stroke:none;fill:#cccccc;"/>
<rect x="34.000000" y="34.000000" width="283.800000" height="24.000000" rx="0" ry="0" style="stroke:none;fill:#477881;"/>
<text x="175.900000" y="48.000000" font-family="Arial" font-size="7" text-anchor="middle" fill="#FFFFFF">hslider(Frequency, 150.0f, 50.0f, 5000.0f, 0.10000000000000001f)</text>
<circle cx="36.000000" cy="36.000000" r="1"/>
<line x1="25.000000" y1="25.000000" x2="25.000000" y2="67.000000"  style="stroke: black; stroke-linecap:round; stroke-width:0.25; stroke-dasharray:3,3;"/>
<line x1="25.000000" y1="67.000000" x2="326.800000" y2="67.000000"  style="stroke: black; stroke-linecap:round; stroke-width:0.25; stroke-dasharray:3,3;"/>
<line x1="326.800000" y1="67.000000" x2="326.800000" y2="25.000000"  style="stroke: black; stroke-linecap:round; stroke-width:0.25; stroke-dasharray:3,3;"/>
<line x1="25.000000" y1="25.000000" x2="30.000000" y2="25.000000"  style="stroke: black; stroke-linecap:round; stroke-width:0.25; stroke-dasharray:3,3;"/>
<line x1="49.350000" y1="25.000000" x2="326.800000" y2="25.000000"  style="stroke: black; stroke-linecap:round; stroke-width:0.25; stroke-dasharray:3,3;"/>
<text x="30.000000" y="27.000000" font-family="Arial" font-size="7">freq</text>
<a xlink:href="fs-0x7f9470063650.svg">
<rect x="164.900000" y="77.000000" width="24.000000" height="24.000000" rx="0" ry="0" style="stroke:none;fill:#cccccc;"/>
<rect x="163.900000" y="76.000000" width="24.000000" height="24.000000" rx="0" ry="0" style="stroke:none;fill:#003366;"/>
</a>
<a xlink:href="fs-0x7f9470063650.svg">
<text x="175.900000" y="90.000000" font-family="Arial" font-size="7" text-anchor="middle" fill="#FFFFFF">fs</text>
</a>
<circle cx="165.900000" cy="78.000000" r="1"/>
<rect x="344.800000" y="51.000000" width="24.000000" height="24.000000" rx="0" ry="0" style="stroke:none;fill:#cccccc;"/>
<rect x="343.800000" y="50.000000" width="24.000000" height="24.000000" rx="0" ry="0" style="stroke:none;fill:#4B71A1;"/>
<text x="355.800000" y="64.000000" font-family="Arial" font-size="7" text-anchor="middle" fill="#FFFFFF">/</text>
<circle cx="345.800000" cy="52.000000" r="1"/>
<line x1="340.800000" y1="57.000000" x2="343.800000" y2="58.000000"  transform="rotate(0.000000,343.800000,58.000000)" style="stroke: black; stroke-width:0.25;"/>
<line x1="340.800000" y1="59.000000" x2="343.800000" y2="58.000000"  transform="rotate(0.000000,343.800000,58.000000)" style="stroke: black; stroke-width:0.25;"/>
<line x1="340.800000" y1="65.000000" x2="343.800000" y2="66.000000"  transform="rotate(0.000000,343.800000,66.000000)" style="stroke: black; stroke-width:0.25;"/>
<line x1="340.800000" y1="67.000000" x2="343.800000" y2="66.000000"  transform="rotate(0.000000,343.800000,66.000000)" style="stroke: black; stroke-width:0.25;"/>
<rect x="392.800000" y="55.000000" width="24.000000" height="24.000000" rx="0" ry="0" style="stroke:none;fill:#cccccc;"/>
<rect x="391.800000" y="54.000000" width="24.000000" height="24.000000" rx="0" ry="0" style="stroke:none;fill:#4B71A1;"/>
<text x="403.800000" y="68.000000" font-family="Arial" font-size="7" text-anchor="middle" fill="#FFFFFF">+</text>
<circle cx="393.800000" cy="56.000000" r="1"/>
<line x1="388.800000" y1="61.000000" x2="391.800000" y2="62.000000"  transform="rotate(0.000000,391.800000,62.000000)" style="stroke: black; stroke-width:0.25;"/>
<line x1="388.800000" y1="63.000000" x2="391.800000" y2="62.000000"  transform="rotate(0.000000,391.800000,62.000000)" style="stroke: black; stroke-width:0.25;"/>
<line x1="388.800000" y1="69.000000" x2="391.800000" y2="70.000000"  transform="rotate(0.000000,391.800000,70.000000)" style="stroke: black; stroke-width:0.25;"/>
<line x1="388.800000" y1="71.000000" x2="391.800000" y2="70.000000"  transform="rotate(0.000000,391.800000,70.000000)" style="stroke: black; stroke-width:0.25;"/>
<rect x="432.800000" y="59.000000" width="24.000000" height="24.000000" rx="0" ry="0" style="stroke:none;fill:#cccccc;"/>
<rect x="431.800000" y="58.000000" width="24.000000" height="24.000000" rx="0" ry="0" style="stroke:none;fill:#f44800;"/>
<text x="443.800000" y="72.000000" font-family="Arial" font-size="7" text-anchor="middle" fill="#FFFFFF">1</text>
<circle cx="433.800000" cy="60.000000" r="1"/>
<rect x="472.800000" y="55.000000" width="25.800000" height="24.000000" rx="0" ry="0" style="stroke:none;fill:#cccccc;"/>
<rect x="471.800000" y="54.000000" width="25.800000" height="24.000000" rx="0" ry="0" style="stroke:none;fill:#4B71A1;"/>
<text x="484.700000" y="68.000000" font-family="Arial" font-size="7" text-anchor="middle" fill="#FFFFFF">fmod</text>
<circle cx="473.800000" cy="56.000000" r="1"/>
<line x1="468.800000" y1="61.000000" x2="471.800000" y2="62.000000"  transform="rotate(0.000000,471.800000,62.000000)" style="stroke: black; stroke-width:0.25;"/>
<line x1="468.800000" y1="63.000000" x2="471.800000" y2="62.000000"  transform="rotate(0.000000,471.800000,62.000000)" style="stroke: black; stroke-width:0.25;"/>
<line x1="468.800000" y1="69.000000" x2="471.800000" y2="70.000000"  transform="rotate(0.000000,471.800000,70.000000)" style="stroke: black; stroke-width:0.25;"/>
<line x1="468.800000" y1="71.000000" x2="471.800000" y2="70.000000"  transform="rotate(0.000000,471.800000,70.000000)" style="stroke: black; stroke-width:0.25;"/>
<line x1="499.600000" y1="66.000000" x2="499.600000" y2="62.000000"  style="stroke:black; stroke-linecap:round; stroke-width:0.25;"/>
<line x1="499.600000" y1="62.000000" x2="503.600000" y2="62.000000"  style="stroke:black; stroke-linecap:round; stroke-width:0.25;"/>
<line x1="503.600000" y1="62.000000" x2="503.600000" y2="66.000000"  style="stroke:black; stroke-linecap:round; stroke-width:0.25;"/>
<line x1="15.000000" y1="15.000000" x2="15.000000" y2="109.000000"  style="stroke: black; stroke-linecap:round; stroke-width:0.25; stroke-dasharray:3,3;"/>
<line x1="15.000000" y1="109.000000" x2="530.600000" y2="109.000000"  style="stroke: black; stroke-linecap:round; stroke-width:0.25; stroke-dasharray:3,3;"/>
<line x1="530.600000" y1="109.000000" x2="530.600000" y2="15.000000"  style="stroke: black; stroke-linecap:round; stroke-width:0.25; stroke-dasharray:3,3;"/>
<line x1="15.000000" y1="15.000000" x2="20.000000" y2="15.000000"  style="stroke: black; stroke-linecap:round; stroke-width:0.25; stroke-dasharray:3,3;"/>
<line x1="119.975000" y1="15.000000" x2="530.600000" y2="15.000000"  style="stroke: black; stroke-linecap:round; stroke-width:0.25; stroke-dasharray:3,3;"/>
<text x="20.000000" y="17.000000" font-family="Arial" font-size="7">phaser(hslide...0000000001f))</text>
<line x1="532.600000" y1="61.000000" x2="535.600000" y2="62.000000"  transform="rotate(0.000000,535.600000,62.000000)" style="stroke: black; stroke-width:0.25;"/>
<line x1="532.600000" y1="63.000000" x2="535.600000" y2="62.000000"  transform="rotate(0.000000,535.600000,62.000000)" style="stroke: black; stroke-width:0.25;"/>
<line x1="187.900000" y1="88.000000" x2="191.900000" y2="88.000000"  style="stroke:black; stroke-linecap:round; stroke-width:0.25;"/>
<line x1="191.900000" y1="88.000000" x2="331.800000" y2="88.000000"  style="stroke:black; stroke-linecap:round; stroke-width:0.25;"/>
<line x1="317.800000" y1="46.000000" x2="321.800000" y2="46.000000"  style="stroke:black; stroke-linecap:round; stroke-width:0.25;"/>
<line x1="321.800000" y1="46.000000" x2="331.800000" y2="46.000000"  style="stroke:black; stroke-linecap:round; stroke-width:0.25;"/>
<line x1="331.800000" y1="46.000000" x2="339.800000" y2="46.000000"  style="stroke:black; stroke-linecap:round; stroke-width:0.25;"/>
<line x1="331.800000" y1="66.000000" x2="339.800000" y2="66.000000"  style="stroke:black; stroke-linecap:round; stroke-width:0.25;"/>
<line x1="331.800000" y1="88.000000" x2="331.800000" y2="66.000000"  style="stroke:black; stroke-linecap:round; stroke-width:0.25;"/>
<line x1="331.800000" y1="88.000000" x2="331.800000" y2="88.000000"  style="stroke:black; stroke-linecap:round; stroke-width:0.25;"/>
<line x1="339.800000" y1="46.000000" x2="339.800000" y2="58.000000"  style="stroke:black; stroke-linecap:round; stroke-width:0.25;"/>
<line x1="339.800000" y1="58.000000" x2="339.800000" y2="58.000000"  style="stroke:black; stroke-linecap:round; stroke-width:0.25;"/>
<line x1="339.800000" y1="58.000000" x2="343.800000" y2="58.000000"  style="stroke:black; stroke-linecap:round; stroke-width:0.25;"/>
<line x1="339.800000" y1="66.000000" x2="343.800000" y2="66.000000"  style="stroke:black; stroke-linecap:round; stroke-width:0.25;"/>
<line x1="367.800000" y1="62.000000" x2="371.800000" y2="62.000000"  style="stroke:black; stroke-linecap:round; stroke-width:0.25;"/>
<line x1="371.800000" y1="62.000000" x2="379.800000" y2="62.000000"  style="stroke:black; stroke-linecap:round; stroke-width:0.25;"/>
<line x1="379.800000" y1="62.000000" x2="379.800000" y2="70.000000"  style="stroke:black; stroke-linecap:round; stroke-width:0.25;"/>
<line x1="379.800000" y1="70.000000" x2="379.800000" y2="70.000000"  style="stroke:black; stroke-linecap:round; stroke-width:0.25;"/>
<line x1="379.800000" y1="70.000000" x2="387.800000" y2="70.000000"  style="stroke:black; stroke-linecap:round; stroke-width:0.25;"/>
<line x1="387.800000" y1="42.000000" x2="387.800000" y2="42.000000"  style="stroke:black; stroke-linecap:round; stroke-width:0.25;"/>
<line x1="387.800000" y1="42.000000" x2="387.800000" y2="62.000000"  style="stroke:black; stroke-linecap:round; stroke-width:0.25;"/>
<line x1="387.800000" y1="62.000000" x2="387.800000" y2="62.000000"  style="stroke:black; stroke-linecap:round; stroke-width:0.25;"/>
<line x1="387.800000" y1="62.000000" x2="391.800000" y2="62.000000"  style="stroke:black; stroke-linecap:round; stroke-width:0.25;"/>
<line x1="387.800000" y1="70.000000" x2="391.800000" y2="70.000000"  style="stroke:black; stroke-linecap:round; stroke-width:0.25;"/>
<line x1="415.800000" y1="66.000000" x2="419.800000" y2="66.000000"  style="stroke:black; stroke-linecap:round; stroke-width:0.25;"/>
<line x1="419.800000" y1="50.000000" x2="427.800000" y2="50.000000"  style="stroke:black; stroke-linecap:round; stroke-width:0.25;"/>
<line x1="419.800000" y1="66.000000" x2="419.800000" y2="50.000000"  style="stroke:black; stroke-linecap:round; stroke-width:0.25;"/>
<line x1="419.800000" y1="66.000000" x2="419.800000" y2="66.000000"  style="stroke:black; stroke-linecap:round; stroke-width:0.25;"/>
<line x1="427.800000" y1="50.000000" x2="443.800000" y2="50.000000"  style="stroke:black; stroke-linecap:round; stroke-width:0.25;"/>
<line x1="443.800000" y1="50.000000" x2="459.800000" y2="50.000000"  style="stroke:black; stroke-linecap:round; stroke-width:0.25;"/>
<line x1="444.700000" y1="42.000000" x2="387.800000" y2="42.000000"  style="stroke:black; stroke-linecap:round; stroke-width:0.25;"/>
<line x1="455.800000" y1="70.000000" x2="459.800000" y2="70.000000"  style="stroke:black; stroke-linecap:round; stroke-width:0.25;"/>
<line x1="459.800000" y1="50.000000" x2="467.800000" y2="50.000000"  style="stroke:black; stroke-linecap:round; stroke-width:0.25;"/>
<line x1="459.800000" y1="70.000000" x2="467.800000" y2="70.000000"  style="stroke:black; stroke-linecap:round; stroke-width:0.25;"/>
<line x1="467.800000" y1="50.000000" x2="467.800000" y2="62.000000"  style="stroke:black; stroke-linecap:round; stroke-width:0.25;"/>
<line x1="467.800000" y1="62.000000" x2="467.800000" y2="62.000000"  style="stroke:black; stroke-linecap:round; stroke-width:0.25;"/>
<line x1="467.800000" y1="62.000000" x2="471.800000" y2="62.000000"  style="stroke:black; stroke-linecap:round; stroke-width:0.25;"/>
<line x1="467.800000" y1="70.000000" x2="471.800000" y2="70.000000"  style="stroke:black; stroke-linecap:round; stroke-width:0.25;"/>
<line x1="497.600000" y1="66.000000" x2="501.600000" y2="66.000000"  style="stroke:black; stroke-linecap:round; stroke-width:0.25;"/>
<line x1="501.600000" y1="42.000000" x2="444.700000" y2="42.000000"  style="stroke:black; stroke-linecap:round; stroke-width:0.25;"/>
<line x1="501.600000" y1="42.000000" x2="501.600000" y2="42.000000"  style="stroke:black; stroke-linecap:round; stroke-width:0.25;"/>
<line x1="501.600000" y1="62.000000" x2="501.600000" y2="42.000000"  style="stroke:black; stroke-linecap:round; stroke-width:0.25;"/>
<line x1="501.600000" y1="66.000000" x2="503.600000" y2="66.000000"  style="stroke:black; stroke-linecap:round; stroke-width:0.25;"/>
<line x1="503.600000" y1="66.000000" x2="509.600000" y2="66.000000"  style="stroke:black; stroke-linecap:round; stroke-width:0.25;"/>
<line x1="509.600000" y1="62.000000" x2="517.600000" y2="62.000000"  style="stroke:black; stroke-linecap:round; stroke-width:0.25;"/>
<line x1="509.600000" y1="66.000000" x2="509.600000" y2="62.000000"  style="stroke:black; stroke-linecap:round; stroke-width:0.25;"/>
<line x1="509.600000" y1="66.000000" x2="509.600000" y2="66.000000"  style="stroke:black; stroke-linecap:round; stroke-width:0.25;"/>
<line x1="517.600000" y1="62.000000" x2="521.600000" y2="62.000000"  style="stroke:black; stroke-linecap:round; stroke-width:0.25;"/>
<line x1="521.600000" y1="62.000000" x2="525.600000" y2="62.000000"  style="stroke:black; stroke-linecap:round; stroke-width:0.25;"/>
<line x1="525.600000" y1="62.000000" x2="535.600000" y2="62.000000"  style="stroke:black; stroke-linecap:round; stroke-width:0.25;"/>
</svg>
